<svg width="416" height="416" viewBox="0 0 416 416" fill="none" xmlns="http://www.w3.org/2000/svg">
<path d="M208 96C146.25 96 96 146.25 96 208C96 269.749 146.25 320 208 320C269.75 320 320 269.749 320 208C320 146.25 269.75 96 208 96ZM208 64C216.833 64 224 56.854 224 48V16C224 7.167 216.833 0 208 0C199.146 0 192 7.167 192 16V48C192 56.854 199.146 64 208 64ZM208 352C199.146 352 192 359.167 192 368V400C192 408.854 199.146 416 208 416C216.833 416 224 408.854 224 400V368C224 359.167 216.833 352 208 352ZM332.417 106.167L355.042 83.542C361.292 77.292 361.292 67.167 355.042 60.917C348.791 54.667 338.667 54.667 332.417 60.917L309.792 83.542C303.541 89.792 303.541 99.917 309.792 106.167C316.042 112.416 326.166 112.416 332.417 106.167ZM83.541 309.854L60.918 332.479C54.666 338.729 54.666 348.856 60.918 355.104C67.167 361.354 77.291 361.354 83.541 355.104L106.166 332.479C112.417 326.188 112.417 316.104 106.166 309.854C99.917 303.604 89.792 303.562 83.541 309.854ZM64 208C64 199.167 56.833 192 48 192H16C7.146 192 0 199.167 0 208C0 216.854 7.146 224 16 224H48C56.833 224 64 216.854 64 208ZM400 192H368C359.146 192 352 199.167 352 208C352 216.854 359.146 224 368 224H400C408.833 224 416 216.854 416 208C416 199.167 408.833 192 400 192ZM83.521 106.167C89.77 112.417 99.896 112.417 106.146 106.167C112.395 99.917 112.395 89.792 106.146 83.542L83.521 60.917C77.271 54.667 67.145 54.667 60.896 60.917C54.646 67.167 54.646 77.292 60.896 83.542L83.521 106.167ZM332.459 309.812C326.166 303.562 316.083 303.562 309.834 309.812C303.584 316.06 303.541 326.187 309.834 332.437L332.459 355.062C338.708 361.31 348.833 361.31 355.084 355.062C361.333 348.812 361.333 338.685 355.084 332.437L332.459 309.812Z" fill="#1D1D1B"/>
</svg>
